<svg width="140" height="33" viewBox="0 0 140 33" fill="none" xmlns="http://www.w3.org/2000/svg">
<path fill-rule="evenodd" clip-rule="evenodd" d="M4.58701e-05 16.4985V17.0132C4.58701e-05 17.4497 0.0753988 18.1708 0.298379 18.9478C1.41023 23.48 5.49999 26.8424 10.3751 26.8424C15.2502 26.8424 19.3399 23.48 20.4518 18.9478C20.6748 18.1708 20.7501 17.4497 20.7501 17.0132V16.4984C20.7501 16.4881 20.7502 16.4777 20.7502 16.4673C20.7502 16.4569 20.7501 16.4465 20.7501 16.4361V5L16.3128 7.95821C14.6306 6.78215 12.5834 6.09222 10.3751 6.09222C8.16677 6.09222 6.1196 6.78215 4.43737 7.95821L4.58701e-05 5V16.4361C1.52971e-05 16.4465 0 16.4569 0 16.4673C0 16.4777 1.52971e-05 16.4881 4.58701e-05 16.4985Z" fill="#1C427D"/>
<path fill-rule="evenodd" clip-rule="evenodd" d="M6.55288 14.8289C6.55288 15.4321 6.06392 15.921 5.46077 15.921C4.85761 15.921 4.36865 15.4321 4.36865 14.8289C4.36865 14.2258 4.85761 13.7368 5.46077 13.7368C6.06392 13.7368 6.55288 14.2258 6.55288 14.8289ZM16.3815 14.829C16.3815 15.4322 15.8925 15.9211 15.2894 15.9211C14.6862 15.9211 14.1973 15.4322 14.1973 14.829C14.1973 14.2258 14.6862 13.7369 15.2894 13.7369C15.8925 13.7369 16.3815 14.2258 16.3815 14.829ZM11.7938 17.2863L10.3749 18.6514L8.95646 17.2863H11.7938Z" fill="white"/>
<path d="M32.08 26.12C30.5 26.12 29.09 25.76 27.85 25.04C26.61 24.3 25.63 23.31 24.91 22.07C24.21 20.81 23.86 19.39 23.86 17.81C23.86 16.19 24.2 14.75 24.88 13.49C25.58 12.23 26.53 11.25 27.73 10.55C28.93 9.83 30.32 9.47 31.9 9.47C33.08 9.47 34.17 9.7 35.17 10.16C36.17 10.62 37.06 11.31 37.84 12.23C38.1 12.51 38.19 12.81 38.11 13.13C38.05 13.45 37.85 13.73 37.51 13.97C37.27 14.15 36.99 14.21 36.67 14.15C36.35 14.09 36.07 13.92 35.83 13.64C34.77 12.5 33.46 11.93 31.9 11.93C30.84 11.93 29.9 12.18 29.08 12.68C28.28 13.18 27.65 13.87 27.19 14.75C26.75 15.61 26.53 16.63 26.53 17.81C26.53 18.93 26.76 19.93 27.22 20.81C27.7 21.69 28.36 22.39 29.2 22.91C30.04 23.41 31 23.66 32.08 23.66C32.82 23.66 33.48 23.57 34.06 23.39C34.64 23.21 35.16 22.92 35.62 22.52C35.9 22.28 36.19 22.15 36.49 22.13C36.81 22.11 37.09 22.2 37.33 22.4C37.63 22.66 37.8 22.95 37.84 23.27C37.88 23.59 37.77 23.87 37.51 24.11C36.07 25.45 34.26 26.12 32.08 26.12ZM45.959 26C45.119 26 44.369 25.77 43.709 25.31C43.049 24.85 42.529 24.22 42.149 23.42C41.789 22.6 41.609 21.66 41.609 20.6V3.92C41.609 3.52 41.729 3.2 41.969 2.96C42.229 2.7 42.559 2.57 42.959 2.57C43.379 2.57 43.709 2.7 43.949 2.96C44.209 3.2 44.339 3.52 44.339 3.92V20.6C44.339 21.38 44.489 22.02 44.789 22.52C45.109 23.02 45.499 23.27 45.959 23.27H46.709C47.089 23.27 47.389 23.4 47.609 23.66C47.829 23.9 47.939 24.23 47.939 24.65C47.939 25.05 47.769 25.38 47.429 25.64C47.109 25.88 46.689 26 46.169 26H45.959ZM57.0798 26.12C55.4798 26.12 54.0498 25.77 52.7898 25.07C51.5498 24.35 50.5698 23.37 49.8498 22.13C49.1498 20.87 48.7998 19.43 48.7998 17.81C48.7998 16.17 49.1498 14.73 49.8498 13.49C50.5698 12.23 51.5498 11.25 52.7898 10.55C54.0498 9.83 55.4798 9.47 57.0798 9.47C58.6798 9.47 60.0998 9.83 61.3398 10.55C62.5998 11.25 63.5798 12.23 64.2798 13.49C64.9998 14.73 65.3698 16.17 65.3898 17.81C65.3898 19.43 65.0298 20.87 64.3098 22.13C63.5898 23.37 62.6098 24.35 61.3698 25.07C60.1298 25.77 58.6998 26.12 57.0798 26.12ZM57.0798 23.66C58.1798 23.66 59.1498 23.41 59.9898 22.91C60.8298 22.41 61.4898 21.72 61.9698 20.84C62.4498 19.96 62.6898 18.95 62.6898 17.81C62.6898 16.67 62.4498 15.66 61.9698 14.78C61.4898 13.88 60.8298 13.18 59.9898 12.68C59.1498 12.18 58.1798 11.93 57.0798 11.93C55.9998 11.93 55.0298 12.18 54.1698 12.68C53.3298 13.18 52.6698 13.88 52.1898 14.78C51.7098 15.66 51.4698 16.67 51.4698 17.81C51.4698 18.95 51.7098 19.96 52.1898 20.84C52.6698 21.72 53.3298 22.41 54.1698 22.91C55.0298 23.41 55.9998 23.66 57.0798 23.66ZM72.3051 26C72.0051 26 71.7351 25.92 71.4951 25.76C71.2551 25.58 71.0851 25.36 70.9851 25.1L66.4551 11.51C66.3151 10.93 66.3251 10.47 66.4851 10.13C66.6451 9.77 66.9851 9.59 67.5051 9.59C67.8451 9.59 68.1251 9.68 68.3451 9.86C68.5851 10.04 68.7751 10.34 68.9151 10.76L72.8451 22.94H71.9451L75.6051 10.64C75.7051 10.32 75.8651 10.07 76.0851 9.89C76.3051 9.69 76.6051 9.59 76.9851 9.59C77.3451 9.59 77.6351 9.69 77.8551 9.89C78.0951 10.07 78.2551 10.32 78.3351 10.64L81.5451 22.4H81.0651L84.8151 10.76C85.0551 9.98 85.5151 9.59 86.1951 9.59C86.7151 9.59 87.0651 9.78 87.2451 10.16C87.4251 10.52 87.4151 10.97 87.2151 11.51L82.6851 25.1C82.6051 25.36 82.4451 25.58 82.2051 25.76C81.9851 25.92 81.7151 26 81.3951 26C81.1151 26 80.8451 25.92 80.5851 25.76C80.3251 25.58 80.1651 25.36 80.1051 25.1L76.7451 13.25H77.0751L73.6251 25.1C73.5451 25.36 73.3751 25.58 73.1151 25.76C72.8751 25.92 72.6051 26 72.3051 26ZM96.9611 26.12C95.4011 26.12 93.9911 25.76 92.7311 25.04C91.4911 24.3 90.5011 23.3 89.7611 22.04C89.0411 20.78 88.6811 19.36 88.6811 17.78C88.6811 16.2 89.0211 14.79 89.7011 13.55C90.3811 12.29 91.3111 11.3 92.4911 10.58C93.6711 9.84 95.0111 9.47 96.5111 9.47C97.7511 9.47 98.8811 9.73 99.9011 10.25C100.941 10.77 101.801 11.47 102.481 12.35V3.95C102.481 3.53 102.611 3.2 102.871 2.96C103.131 2.7 103.461 2.57 103.861 2.57C104.281 2.57 104.621 2.7 104.881 2.96C105.141 3.2 105.271 3.53 105.271 3.95V17.84C105.251 19.4 104.871 20.81 104.131 22.07C103.411 23.33 102.421 24.32 101.161 25.04C99.9211 25.76 98.5211 26.12 96.9611 26.12ZM96.9611 23.66C98.0411 23.66 99.0011 23.41 99.8411 22.91C100.681 22.39 101.341 21.69 101.821 20.81C102.321 19.91 102.571 18.9 102.571 17.78C102.571 16.66 102.321 15.66 101.821 14.78C101.341 13.9 100.681 13.21 99.8411 12.71C99.0011 12.19 98.0411 11.93 96.9611 11.93C95.9211 11.93 94.9711 12.19 94.1111 12.71C93.2511 13.21 92.5711 13.9 92.0711 14.78C91.5911 15.66 91.3511 16.66 91.3511 17.78C91.3511 18.9 91.5911 19.91 92.0711 20.81C92.5711 21.69 93.2511 22.39 94.1111 22.91C94.9711 23.41 95.9211 23.66 96.9611 23.66ZM117.843 26.12C116.183 26.12 114.713 25.77 113.433 25.07C112.173 24.35 111.183 23.37 110.463 22.13C109.743 20.87 109.383 19.43 109.383 17.81C109.383 16.17 109.723 14.73 110.403 13.49C111.083 12.23 112.023 11.25 113.223 10.55C114.423 9.83 115.813 9.47 117.393 9.47C118.933 9.47 120.263 9.82 121.383 10.52C122.503 11.2 123.363 12.15 123.963 13.37C124.563 14.57 124.863 15.96 124.863 17.54C124.863 17.88 124.743 18.17 124.503 18.41C124.283 18.63 123.983 18.74 123.603 18.74H111.273V16.52H123.633L122.403 17.39C122.383 16.33 122.173 15.38 121.773 14.54C121.373 13.7 120.803 13.04 120.063 12.56C119.323 12.08 118.433 11.84 117.393 11.84C116.253 11.84 115.263 12.1 114.423 12.62C113.603 13.14 112.973 13.85 112.533 14.75C112.093 15.65 111.873 16.67 111.873 17.81C111.873 18.95 112.123 19.97 112.623 20.87C113.143 21.75 113.843 22.45 114.723 22.97C115.623 23.49 116.663 23.75 117.843 23.75C118.483 23.75 119.143 23.63 119.823 23.39C120.523 23.15 121.073 22.87 121.473 22.55C121.753 22.33 122.053 22.22 122.373 22.22C122.693 22.2 122.973 22.29 123.213 22.49C123.513 22.77 123.673 23.08 123.693 23.42C123.713 23.74 123.573 24.02 123.273 24.26C122.593 24.8 121.743 25.25 120.723 25.61C119.723 25.95 118.763 26.12 117.843 26.12ZM129.578 15.8C129.618 14.58 129.928 13.49 130.508 12.53C131.108 11.57 131.898 10.81 132.878 10.25C133.858 9.69 134.938 9.41 136.118 9.41C137.218 9.41 138.038 9.58 138.578 9.92C139.138 10.26 139.348 10.69 139.208 11.21C139.148 11.51 139.028 11.73 138.848 11.87C138.668 11.99 138.458 12.06 138.218 12.08C137.978 12.08 137.718 12.06 137.438 12.02C136.218 11.82 135.128 11.85 134.168 12.11C133.208 12.37 132.448 12.82 131.888 13.46C131.328 14.1 131.048 14.88 131.048 15.8H129.578ZM129.668 26C129.248 26 128.918 25.89 128.678 25.67C128.438 25.43 128.318 25.09 128.318 24.65V10.94C128.318 10.52 128.438 10.19 128.678 9.95C128.918 9.71 129.248 9.59 129.668 9.59C130.128 9.59 130.468 9.71 130.688 9.95C130.928 10.17 131.048 10.5 131.048 10.94V24.65C131.048 25.07 130.928 25.4 130.688 25.64C130.468 25.88 130.128 26 129.668 26Z" fill="#1C427D"/>
</svg>
