<svg width="75" height="81" viewBox="0 0 75 81" fill="none" xmlns="http://www.w3.org/2000/svg">
<path fill-rule="evenodd" clip-rule="evenodd" d="M0.000165939 42.5588V44.4629C0.000165939 46.0771 0.272127 48.7434 1.07671 51.6165C5.09287 68.3947 19.8767 80.843 37.4999 80.843C55.1231 80.843 69.907 68.3947 73.9232 51.6166C74.7278 48.7434 74.9997 46.0771 74.9997 44.4629V42.5568C74.9998 42.5189 74.9999 42.4811 74.9999 42.4433C74.9999 42.4055 74.9998 42.3676 74.9997 42.3298V0L58.9606 10.9493C52.8804 6.59686 45.4814 4.04355 37.4999 4.04355C29.5185 4.04355 22.1195 6.59686 16.0393 10.9493L0.000165939 0V42.3278C5.53388e-05 42.3663 0 42.4048 0 42.4433C0 42.4818 5.53388e-05 42.5203 0.000165939 42.5588Z" fill="#1C427D"/>
<path fill-rule="evenodd" clip-rule="evenodd" d="M23.6857 36.3785C23.6857 38.6109 21.9184 40.4206 19.7384 40.4206C17.5583 40.4206 15.791 38.6109 15.791 36.3785C15.791 34.1461 17.5583 32.3364 19.7384 32.3364C21.9184 32.3364 23.6857 34.1461 23.6857 36.3785ZM59.2102 36.3787C59.2102 38.611 57.4429 40.4207 55.2629 40.4207C53.0828 40.4207 51.3155 38.611 51.3155 36.3787C51.3155 34.1463 53.0828 32.3366 55.2629 32.3366C57.4429 32.3366 59.2102 34.1463 59.2102 36.3787ZM42.6285 45.4735L37.4999 50.5261L32.373 45.4735H42.6285Z" fill="white"/>
</svg>
