<svg width="138" height="33" viewBox="0 0 138 33" fill="none" xmlns="http://www.w3.org/2000/svg">
<path fill-rule="evenodd" clip-rule="evenodd" d="M2.71797e-05 17.4648V17.9389C2.71797e-05 18.3362 0.0689727 18.9925 0.272968 19.6996C1.29069 23.827 5.03574 26.8892 9.5 26.8892C13.9643 26.8892 17.7093 23.827 18.727 19.6996C18.931 18.9925 19 18.3362 19 17.9389V17.4646C19 17.4571 19 17.4495 19 17.442C19 17.4344 19 17.4269 19 17.4193V7L14.9368 9.69376C13.3964 8.62293 11.522 7.99474 9.5 7.99474C7.47801 7.99474 5.60356 8.62293 4.06324 9.69376L2.71797e-05 7V17.4191C9.06329e-06 17.4267 0 17.4343 0 17.442C0 17.4496 9.06329e-06 17.4572 2.71797e-05 17.4648Z" fill="#1C427D"/>
<path fill-rule="evenodd" clip-rule="evenodd" d="M6 17.1312C6 17.6804 5.55228 18.1256 5 18.1256C4.44772 18.1256 4 17.6804 4 17.1312C4 16.5819 4.44772 16.1367 5 16.1367C5.55228 16.1367 6 16.5819 6 17.1312ZM14.9996 17.1312C14.9996 17.6804 14.5519 18.1256 13.9996 18.1256C13.4473 18.1256 12.9996 17.6804 12.9996 17.1312C12.9996 16.5819 13.4473 16.1367 13.9996 16.1367C14.5519 16.1367 14.9996 16.5819 14.9996 17.1312ZM10.9106 19.99L9.61133 21.2331L8.3125 19.99H10.9106Z" fill="white"/>
<path d="M30.08 26.12C28.5 26.12 27.09 25.76 25.85 25.04C24.61 24.3 23.63 23.31 22.91 22.07C22.21 20.81 21.86 19.39 21.86 17.81C21.86 16.19 22.2 14.75 22.88 13.49C23.58 12.23 24.53 11.25 25.73 10.55C26.93 9.83 28.32 9.47 29.9 9.47C31.08 9.47 32.17 9.7 33.17 10.16C34.17 10.62 35.06 11.31 35.84 12.23C36.1 12.51 36.19 12.81 36.11 13.13C36.05 13.45 35.85 13.73 35.51 13.97C35.27 14.15 34.99 14.21 34.67 14.15C34.35 14.09 34.07 13.92 33.83 13.64C32.77 12.5 31.46 11.93 29.9 11.93C28.84 11.93 27.9 12.18 27.08 12.68C26.28 13.18 25.65 13.87 25.19 14.75C24.75 15.61 24.53 16.63 24.53 17.81C24.53 18.93 24.76 19.93 25.22 20.81C25.7 21.69 26.36 22.39 27.2 22.91C28.04 23.41 29 23.66 30.08 23.66C30.82 23.66 31.48 23.57 32.06 23.39C32.64 23.21 33.16 22.92 33.62 22.52C33.9 22.28 34.19 22.15 34.49 22.13C34.81 22.11 35.09 22.2 35.33 22.4C35.63 22.66 35.8 22.95 35.84 23.27C35.88 23.59 35.77 23.87 35.51 24.11C34.07 25.45 32.26 26.12 30.08 26.12ZM43.959 26C43.119 26 42.369 25.77 41.709 25.31C41.049 24.85 40.529 24.22 40.149 23.42C39.789 22.6 39.609 21.66 39.609 20.6V3.92C39.609 3.52 39.729 3.2 39.969 2.96C40.229 2.7 40.559 2.57 40.959 2.57C41.379 2.57 41.709 2.7 41.949 2.96C42.209 3.2 42.339 3.52 42.339 3.92V20.6C42.339 21.38 42.489 22.02 42.789 22.52C43.109 23.02 43.499 23.27 43.959 23.27H44.709C45.089 23.27 45.389 23.4 45.609 23.66C45.829 23.9 45.939 24.23 45.939 24.65C45.939 25.05 45.769 25.38 45.429 25.64C45.109 25.88 44.689 26 44.169 26H43.959ZM55.0798 26.12C53.4798 26.12 52.0498 25.77 50.7898 25.07C49.5498 24.35 48.5698 23.37 47.8498 22.13C47.1498 20.87 46.7998 19.43 46.7998 17.81C46.7998 16.17 47.1498 14.73 47.8498 13.49C48.5698 12.23 49.5498 11.25 50.7898 10.55C52.0498 9.83 53.4798 9.47 55.0798 9.47C56.6798 9.47 58.0998 9.83 59.3398 10.55C60.5998 11.25 61.5798 12.23 62.2798 13.49C62.9998 14.73 63.3698 16.17 63.3898 17.81C63.3898 19.43 63.0298 20.87 62.3098 22.13C61.5898 23.37 60.6098 24.35 59.3698 25.07C58.1298 25.77 56.6998 26.12 55.0798 26.12ZM55.0798 23.66C56.1798 23.66 57.1498 23.41 57.9898 22.91C58.8298 22.41 59.4898 21.72 59.9698 20.84C60.4498 19.96 60.6898 18.95 60.6898 17.81C60.6898 16.67 60.4498 15.66 59.9698 14.78C59.4898 13.88 58.8298 13.18 57.9898 12.68C57.1498 12.18 56.1798 11.93 55.0798 11.93C53.9998 11.93 53.0298 12.18 52.1698 12.68C51.3298 13.18 50.6698 13.88 50.1898 14.78C49.7098 15.66 49.4698 16.67 49.4698 17.81C49.4698 18.95 49.7098 19.96 50.1898 20.84C50.6698 21.72 51.3298 22.41 52.1698 22.91C53.0298 23.41 53.9998 23.66 55.0798 23.66ZM70.3051 26C70.0051 26 69.7351 25.92 69.4951 25.76C69.2551 25.58 69.0851 25.36 68.9851 25.1L64.4551 11.51C64.3151 10.93 64.3251 10.47 64.4851 10.13C64.6451 9.77 64.9851 9.59 65.5051 9.59C65.8451 9.59 66.1251 9.68 66.3451 9.86C66.5851 10.04 66.7751 10.34 66.9151 10.76L70.8451 22.94H69.9451L73.6051 10.64C73.7051 10.32 73.8651 10.07 74.0851 9.89C74.3051 9.69 74.6051 9.59 74.9851 9.59C75.3451 9.59 75.6351 9.69 75.8551 9.89C76.0951 10.07 76.2551 10.32 76.3351 10.64L79.5451 22.4H79.0651L82.8151 10.76C83.0551 9.98 83.5151 9.59 84.1951 9.59C84.7151 9.59 85.0651 9.78 85.2451 10.16C85.4251 10.52 85.4151 10.97 85.2151 11.51L80.6851 25.1C80.6051 25.36 80.4451 25.58 80.2051 25.76C79.9851 25.92 79.7151 26 79.3951 26C79.1151 26 78.8451 25.92 78.5851 25.76C78.3251 25.58 78.1651 25.36 78.1051 25.1L74.7451 13.25H75.0751L71.6251 25.1C71.5451 25.36 71.3751 25.58 71.1151 25.76C70.8751 25.92 70.6051 26 70.3051 26ZM94.9611 26.12C93.4011 26.12 91.9911 25.76 90.7311 25.04C89.4911 24.3 88.5011 23.3 87.7611 22.04C87.0411 20.78 86.6811 19.36 86.6811 17.78C86.6811 16.2 87.0211 14.79 87.7011 13.55C88.3811 12.29 89.3111 11.3 90.4911 10.58C91.6711 9.84 93.0111 9.47 94.5111 9.47C95.7511 9.47 96.8811 9.73 97.9011 10.25C98.9411 10.77 99.8011 11.47 100.481 12.35V3.95C100.481 3.53 100.611 3.2 100.871 2.96C101.131 2.7 101.461 2.57 101.861 2.57C102.281 2.57 102.621 2.7 102.881 2.96C103.141 3.2 103.271 3.53 103.271 3.95V17.84C103.251 19.4 102.871 20.81 102.131 22.07C101.411 23.33 100.421 24.32 99.1611 25.04C97.9211 25.76 96.5211 26.12 94.9611 26.12ZM94.9611 23.66C96.0411 23.66 97.0011 23.41 97.8411 22.91C98.6811 22.39 99.3411 21.69 99.8211 20.81C100.321 19.91 100.571 18.9 100.571 17.78C100.571 16.66 100.321 15.66 99.8211 14.78C99.3411 13.9 98.6811 13.21 97.8411 12.71C97.0011 12.19 96.0411 11.93 94.9611 11.93C93.9211 11.93 92.9711 12.19 92.1111 12.71C91.2511 13.21 90.5711 13.9 90.0711 14.78C89.5911 15.66 89.3511 16.66 89.3511 17.78C89.3511 18.9 89.5911 19.91 90.0711 20.81C90.5711 21.69 91.2511 22.39 92.1111 22.91C92.9711 23.41 93.9211 23.66 94.9611 23.66ZM115.843 26.12C114.183 26.12 112.713 25.77 111.433 25.07C110.173 24.35 109.183 23.37 108.463 22.13C107.743 20.87 107.383 19.43 107.383 17.81C107.383 16.17 107.723 14.73 108.403 13.49C109.083 12.23 110.023 11.25 111.223 10.55C112.423 9.83 113.813 9.47 115.393 9.47C116.933 9.47 118.263 9.82 119.383 10.52C120.503 11.2 121.363 12.15 121.963 13.37C122.563 14.57 122.863 15.96 122.863 17.54C122.863 17.88 122.743 18.17 122.503 18.41C122.283 18.63 121.983 18.74 121.603 18.74H109.273V16.52H121.633L120.403 17.39C120.383 16.33 120.173 15.38 119.773 14.54C119.373 13.7 118.803 13.04 118.063 12.56C117.323 12.08 116.433 11.84 115.393 11.84C114.253 11.84 113.263 12.1 112.423 12.62C111.603 13.14 110.973 13.85 110.533 14.75C110.093 15.65 109.873 16.67 109.873 17.81C109.873 18.95 110.123 19.97 110.623 20.87C111.143 21.75 111.843 22.45 112.723 22.97C113.623 23.49 114.663 23.75 115.843 23.75C116.483 23.75 117.143 23.63 117.823 23.39C118.523 23.15 119.073 22.87 119.473 22.55C119.753 22.33 120.053 22.22 120.373 22.22C120.693 22.2 120.973 22.29 121.213 22.49C121.513 22.77 121.673 23.08 121.693 23.42C121.713 23.74 121.573 24.02 121.273 24.26C120.593 24.8 119.743 25.25 118.723 25.61C117.723 25.95 116.763 26.12 115.843 26.12ZM127.578 15.8C127.618 14.58 127.928 13.49 128.508 12.53C129.108 11.57 129.898 10.81 130.878 10.25C131.858 9.69 132.938 9.41 134.118 9.41C135.218 9.41 136.038 9.58 136.578 9.92C137.138 10.26 137.348 10.69 137.208 11.21C137.148 11.51 137.028 11.73 136.848 11.87C136.668 11.99 136.458 12.06 136.218 12.08C135.978 12.08 135.718 12.06 135.438 12.02C134.218 11.82 133.128 11.85 132.168 12.11C131.208 12.37 130.448 12.82 129.888 13.46C129.328 14.1 129.048 14.88 129.048 15.8H127.578ZM127.668 26C127.248 26 126.918 25.89 126.678 25.67C126.438 25.43 126.318 25.09 126.318 24.65V10.94C126.318 10.52 126.438 10.19 126.678 9.95C126.918 9.71 127.248 9.59 127.668 9.59C128.128 9.59 128.468 9.71 128.688 9.95C128.928 10.17 129.048 10.5 129.048 10.94V24.65C129.048 25.07 128.928 25.4 128.688 25.64C128.468 25.88 128.128 26 127.668 26Z" fill="#1C427D"/>
</svg>
