<svg width="124" height="33" viewBox="0 0 124 33" fill="none" xmlns="http://www.w3.org/2000/svg">
<path d="M13.5 26.3C11.88 26.3 10.36 26 8.94 25.4C7.54 24.78 6.31 23.92 5.25 22.82C4.21 21.72 3.39 20.44 2.79 18.98C2.19 17.52 1.89 15.95 1.89 14.27C1.89 12.61 2.18 11.06 2.76 9.62C3.36 8.16 4.19 6.88 5.25 5.78C6.31 4.68 7.54 3.82 8.94 3.2C10.34 2.58 11.86 2.27 13.5 2.27C15 2.27 16.32 2.48 17.46 2.9C18.6 3.3 19.73 3.96 20.85 4.88C21.01 5 21.12 5.14 21.18 5.3C21.26 5.44 21.29 5.59 21.27 5.75C21.27 5.89 21.24 6.03 21.18 6.17C21.16 6.47 21.03 6.71 20.79 6.89C20.57 7.07 20.3 7.17 19.98 7.19C19.68 7.19 19.38 7.08 19.08 6.86C18.32 6.2 17.52 5.7 16.68 5.36C15.84 5.02 14.78 4.85 13.5 4.85C12.28 4.85 11.13 5.1 10.05 5.6C8.99 6.1 8.05 6.78 7.23 7.64C6.41 8.5 5.77 9.5 5.31 10.64C4.85 11.78 4.62 12.99 4.62 14.27C4.62 15.59 4.85 16.82 5.31 17.96C5.77 19.08 6.41 20.08 7.23 20.96C8.05 21.82 8.99 22.49 10.05 22.97C11.13 23.45 12.28 23.69 13.5 23.69C14.56 23.69 15.56 23.52 16.5 23.18C17.44 22.82 18.33 22.32 19.17 21.68C19.49 21.44 19.81 21.34 20.13 21.38C20.45 21.4 20.72 21.53 20.94 21.77C21.16 21.99 21.27 22.3 21.27 22.7C21.27 22.88 21.24 23.06 21.18 23.24C21.12 23.4 21.01 23.55 20.85 23.69C19.81 24.59 18.66 25.25 17.4 25.67C16.16 26.09 14.86 26.3 13.5 26.3ZM29.2324 26C28.3924 26 27.6424 25.77 26.9824 25.31C26.3224 24.85 25.8024 24.22 25.4224 23.42C25.0624 22.6 24.8824 21.66 24.8824 20.6V3.92C24.8824 3.52 25.0024 3.2 25.2424 2.96C25.5024 2.7 25.8324 2.57 26.2324 2.57C26.6524 2.57 26.9824 2.7 27.2224 2.96C27.4824 3.2 27.6124 3.52 27.6124 3.92V20.6C27.6124 21.38 27.7624 22.02 28.0624 22.52C28.3824 23.02 28.7724 23.27 29.2324 23.27H29.9824C30.3624 23.27 30.6624 23.4 30.8824 23.66C31.1024 23.9 31.2124 24.23 31.2124 24.65C31.2124 25.05 31.0424 25.38 30.7024 25.64C30.3824 25.88 29.9624 26 29.4424 26H29.2324ZM40.3533 26.12C38.7533 26.12 37.3233 25.77 36.0633 25.07C34.8233 24.35 33.8433 23.37 33.1233 22.13C32.4233 20.87 32.0733 19.43 32.0733 17.81C32.0733 16.17 32.4233 14.73 33.1233 13.49C33.8433 12.23 34.8233 11.25 36.0633 10.55C37.3233 9.83 38.7533 9.47 40.3533 9.47C41.9533 9.47 43.3733 9.83 44.6133 10.55C45.8733 11.25 46.8533 12.23 47.5533 13.49C48.2733 14.73 48.6433 16.17 48.6633 17.81C48.6633 19.43 48.3033 20.87 47.5833 22.13C46.8633 23.37 45.8833 24.35 44.6433 25.07C43.4033 25.77 41.9733 26.12 40.3533 26.12ZM40.3533 23.66C41.4533 23.66 42.4233 23.41 43.2633 22.91C44.1033 22.41 44.7633 21.72 45.2433 20.84C45.7233 19.96 45.9633 18.95 45.9633 17.81C45.9633 16.67 45.7233 15.66 45.2433 14.78C44.7633 13.88 44.1033 13.18 43.2633 12.68C42.4233 12.18 41.4533 11.93 40.3533 11.93C39.2733 11.93 38.3033 12.18 37.4433 12.68C36.6033 13.18 35.9433 13.88 35.4633 14.78C34.9833 15.66 34.7433 16.67 34.7433 17.81C34.7433 18.95 34.9833 19.96 35.4633 20.84C35.9433 21.72 36.6033 22.41 37.4433 22.91C38.3033 23.41 39.2733 23.66 40.3533 23.66ZM55.5785 26C55.2785 26 55.0085 25.92 54.7685 25.76C54.5285 25.58 54.3585 25.36 54.2585 25.1L49.7285 11.51C49.5885 10.93 49.5985 10.47 49.7585 10.13C49.9185 9.77 50.2585 9.59 50.7785 9.59C51.1185 9.59 51.3985 9.68 51.6185 9.86C51.8585 10.04 52.0485 10.34 52.1885 10.76L56.1185 22.94H55.2185L58.8785 10.64C58.9785 10.32 59.1385 10.07 59.3585 9.89C59.5785 9.69 59.8785 9.59 60.2585 9.59C60.6185 9.59 60.9085 9.69 61.1285 9.89C61.3685 10.07 61.5285 10.32 61.6085 10.64L64.8185 22.4H64.3385L68.0885 10.76C68.3285 9.98 68.7885 9.59 69.4685 9.59C69.9885 9.59 70.3385 9.78 70.5185 10.16C70.6985 10.52 70.6885 10.97 70.4885 11.51L65.9585 25.1C65.8785 25.36 65.7185 25.58 65.4785 25.76C65.2585 25.92 64.9885 26 64.6685 26C64.3885 26 64.1185 25.92 63.8585 25.76C63.5985 25.58 63.4385 25.36 63.3785 25.1L60.0185 13.25H60.3485L56.8985 25.1C56.8185 25.36 56.6485 25.58 56.3885 25.76C56.1485 25.92 55.8785 26 55.5785 26ZM80.2345 26.12C78.6745 26.12 77.2645 25.76 76.0045 25.04C74.7645 24.3 73.7745 23.3 73.0345 22.04C72.3145 20.78 71.9545 19.36 71.9545 17.78C71.9545 16.2 72.2945 14.79 72.9745 13.55C73.6545 12.29 74.5845 11.3 75.7645 10.58C76.9445 9.84 78.2845 9.47 79.7845 9.47C81.0245 9.47 82.1545 9.73 83.1745 10.25C84.2145 10.77 85.0745 11.47 85.7545 12.35V3.95C85.7545 3.53 85.8845 3.2 86.1445 2.96C86.4045 2.7 86.7345 2.57 87.1345 2.57C87.5545 2.57 87.8945 2.7 88.1545 2.96C88.4145 3.2 88.5445 3.53 88.5445 3.95V17.84C88.5245 19.4 88.1445 20.81 87.4045 22.07C86.6845 23.33 85.6945 24.32 84.4345 25.04C83.1945 25.76 81.7945 26.12 80.2345 26.12ZM80.2345 23.66C81.3145 23.66 82.2745 23.41 83.1145 22.91C83.9545 22.39 84.6145 21.69 85.0945 20.81C85.5945 19.91 85.8445 18.9 85.8445 17.78C85.8445 16.66 85.5945 15.66 85.0945 14.78C84.6145 13.9 83.9545 13.21 83.1145 12.71C82.2745 12.19 81.3145 11.93 80.2345 11.93C79.1945 11.93 78.2445 12.19 77.3845 12.71C76.5245 13.21 75.8445 13.9 75.3445 14.78C74.8645 15.66 74.6245 16.66 74.6245 17.78C74.6245 18.9 74.8645 19.91 75.3445 20.81C75.8445 21.69 76.5245 22.39 77.3845 22.91C78.2445 23.41 79.1945 23.66 80.2345 23.66ZM101.117 26.12C99.4569 26.12 97.9869 25.77 96.7069 25.07C95.4469 24.35 94.4569 23.37 93.7369 22.13C93.0169 20.87 92.6569 19.43 92.6569 17.81C92.6569 16.17 92.9969 14.73 93.6769 13.49C94.3569 12.23 95.2969 11.25 96.4969 10.55C97.6969 9.83 99.0869 9.47 100.667 9.47C102.207 9.47 103.537 9.82 104.657 10.52C105.777 11.2 106.637 12.15 107.237 13.37C107.837 14.57 108.137 15.96 108.137 17.54C108.137 17.88 108.017 18.17 107.777 18.41C107.557 18.63 107.257 18.74 106.877 18.74H94.5469V16.52H106.907L105.677 17.39C105.657 16.33 105.447 15.38 105.047 14.54C104.647 13.7 104.077 13.04 103.337 12.56C102.597 12.08 101.707 11.84 100.667 11.84C99.5269 11.84 98.5369 12.1 97.6969 12.62C96.8769 13.14 96.2469 13.85 95.8069 14.75C95.3669 15.65 95.1469 16.67 95.1469 17.81C95.1469 18.95 95.3969 19.97 95.8969 20.87C96.4169 21.75 97.1169 22.45 97.9969 22.97C98.8969 23.49 99.9369 23.75 101.117 23.75C101.757 23.75 102.417 23.63 103.097 23.39C103.797 23.15 104.347 22.87 104.747 22.55C105.027 22.33 105.327 22.22 105.647 22.22C105.967 22.2 106.247 22.29 106.487 22.49C106.787 22.77 106.947 23.08 106.967 23.42C106.987 23.74 106.847 24.02 106.547 24.26C105.867 24.8 105.017 25.25 103.997 25.61C102.997 25.95 102.037 26.12 101.117 26.12ZM112.852 15.8C112.892 14.58 113.202 13.49 113.782 12.53C114.382 11.57 115.172 10.81 116.152 10.25C117.132 9.69 118.212 9.41 119.392 9.41C120.492 9.41 121.312 9.58 121.852 9.92C122.412 10.26 122.622 10.69 122.482 11.21C122.422 11.51 122.302 11.73 122.122 11.87C121.942 11.99 121.732 12.06 121.492 12.08C121.252 12.08 120.992 12.06 120.712 12.02C119.492 11.82 118.402 11.85 117.442 12.11C116.482 12.37 115.722 12.82 115.162 13.46C114.602 14.1 114.322 14.88 114.322 15.8H112.852ZM112.942 26C112.522 26 112.192 25.89 111.952 25.67C111.712 25.43 111.592 25.09 111.592 24.65V10.94C111.592 10.52 111.712 10.19 111.952 9.95C112.192 9.71 112.522 9.59 112.942 9.59C113.402 9.59 113.742 9.71 113.962 9.95C114.202 10.17 114.322 10.5 114.322 10.94V24.65C114.322 25.07 114.202 25.4 113.962 25.64C113.742 25.88 113.402 26 112.942 26Z" fill="#1C427D"/>
</svg>
