<svg width="21" height="22" viewBox="0 0 21 22" fill="none" xmlns="http://www.w3.org/2000/svg">
<path fill-rule="evenodd" clip-rule="evenodd" d="M4.58701e-05 11.4985V12.0132C4.58701e-05 12.4497 0.0753988 13.1708 0.298379 13.9478C1.41023 18.48 5.49999 21.8424 10.3751 21.8424C15.2502 21.8424 19.3399 18.48 20.4518 13.9478C20.6748 13.1708 20.7501 12.4497 20.7501 12.0132V11.4984C20.7501 11.4881 20.7502 11.4777 20.7502 11.4673C20.7502 11.4569 20.7501 11.4465 20.7501 11.4361V0L16.3128 2.95821C14.6306 1.78215 12.5834 1.09222 10.3751 1.09222C8.16677 1.09222 6.1196 1.78215 4.43737 2.95821L4.58701e-05 0V11.4361C1.52971e-05 11.4465 0 11.4569 0 11.4673C0 11.4777 1.52971e-05 11.4881 4.58701e-05 11.4985Z" fill="#1C427D"/>
<path fill-rule="evenodd" clip-rule="evenodd" d="M6.55288 9.82893C6.55288 10.4321 6.06392 10.921 5.46077 10.921C4.85761 10.921 4.36865 10.4321 4.36865 9.82893C4.36865 9.22577 4.85761 8.73682 5.46077 8.73682C6.06392 8.73682 6.55288 9.22577 6.55288 9.82893ZM16.3815 9.829C16.3815 10.4322 15.8925 10.9211 15.2894 10.9211C14.6862 10.9211 14.1973 10.4322 14.1973 9.829C14.1973 9.22585 14.6862 8.73689 15.2894 8.73689C15.8925 8.73689 16.3815 9.22585 16.3815 9.829ZM11.7938 12.2863L10.3749 13.6514L8.95646 12.2863H11.7938Z" fill="white"/>
</svg>
