<svg width="77" height="81" viewBox="0 0 77 81" fill="none" xmlns="http://www.w3.org/2000/svg">
<path fill-rule="evenodd" clip-rule="evenodd"
	  d="M16.4664 10.9166L0 0V44.3312C0 45.9427 0.279929 48.6058 1.10843 51.4746C5.23588 68.1972 20.4111 80.6029 38.5 80.6029C56.5875 80.6029 71.7617 68.1992 75.8906 51.4788C76.72 48.6084 77.0003 45.9435 77.0003 44.3312V0L60.5337 10.9167C54.2913 6.57681 46.6946 4.03084 38.5 4.03084C30.3055 4.03084 22.7089 6.57678 16.4664 10.9166Z" fill="#666666"/>
<path fill-rule="evenodd" clip-rule="evenodd" d="M24.3162 41.0579C24.3162 43.2837 22.5018 45.088 20.2636 45.088C18.0254 45.088 16.2109 43.2837 16.2109 41.0579C16.2109 38.8322 18.0254 37.0278 20.2636 37.0278C22.5018 37.0278 24.3162 38.8322 24.3162 41.0579ZM60.7877 41.058C60.7877 43.2837 58.9733 45.0881 56.7351 45.0881C54.4969 45.0881 52.6824 43.2837 52.6824 41.058C52.6824 38.8322 54.4969 37.0279 56.7351 37.0279C58.9733 37.0279 60.7877 38.8322 60.7877 41.058ZM44.2165 52.6431L38.9512 57.6808L33.6875 52.6431H44.2165Z" fill="white"/>
</svg>
